<?xml version="1.0" encoding="UTF-8"?>
<!DOCTYPE svg PUBLIC "-//W3C//DTD SVG 1.1//EN" "http://www.w3.org/Graphics/SVG/1.1/DTD/svg11.dtd">
<!-- Creator: CorelDRAW X6 -->
<svg xmlns="http://www.w3.org/2000/svg" xml:space="preserve" width="7.36111in" height="6.93055in" version="1.1" style="shape-rendering:geometricPrecision; text-rendering:geometricPrecision; image-rendering:optimizeQuality; fill-rule:evenodd; clip-rule:evenodd"
 xmlns:xlink="http://www.w3.org/1999/xlink">
 <defs>
 <g id="Layer_x0020_1">
  <metadata id="CorelCorpID_0Corel-Layer"/>
  <polygon class="fil0" points="0,6931 7375,6931 7375,3097 0,3097 "/>
  <path class="fil1" d="M2120 756c-125,0 -226,101 -226,226 0,100 65,185 155,215 11,2 15,-5 15,-11 0,-5 0,-20 0,-38 -63,14 -76,-30 -76,-30 -10,-26 -25,-33 -25,-33 -21,-14 2,-14 2,-14 23,2 35,23 35,23 20,35 53,25 66,19 2,-15 8,-25 14,-30 -50,-6 -103,-25 -103,-112 0,-25 9,-45 23,-61 -2,-6 -10,-29 2,-60 0,0 19,-6 62,23 18,-5 37,-8 57,-8 19,0 39,3 57,8 43,-29 62,-23 62,-23 12,31 5,54 2,60 15,16 23,36 23,61 0,87 -53,106 -103,112 8,7 15,21 15,42 0,30 0,55 0,62 0,6 4,13 16,11 90,-30 155,-115 155,-215 0,-125 -101,-226 -226,-226z"/>
  <path class="fil1" d="M4870 76c-463,0 -839,375 -839,839 0,371 240,685 574,796 42,8 57,-18 57,-40 0,-20 -1,-86 -1,-156 -233,51 -283,-99 -283,-99 -38,-97 -93,-123 -93,-123 -76,-52 6,-51 6,-51 84,6 129,86 129,86 75,128 196,91 244,70 8,-54 29,-91 53,-112 -186,-21 -382,-93 -382,-415 0,-92 33,-166 86,-225 -9,-21 -37,-106 8,-222 0,0 70,-23 231,86 67,-19 139,-28 210,-28 71,0 143,10 210,28 160,-109 230,-86 230,-86 46,116 17,201 8,222 54,59 86,134 86,225 0,322 -196,393 -383,414 30,26 57,77 57,155 0,112 -1,203 -1,230 0,22 15,48 58,40 333,-111 573,-425 573,-796 0,-463 -376,-839 -839,-839z"/>
  <path class="fil2" d="M4349 1280c-2,4 -8,5 -14,3 -6,-3 -10,-8 -8,-13 2,-4 8,-5 14,-3 6,3 10,8 7,13l0 0z"/>
  <path class="fil2" d="M4382 1318c-4,4 -12,2 -17,-4 -5,-6 -7,-14 -2,-17 4,-4 12,-2 17,4 5,6 7,14 2,17l0 0z"/>
  <path class="fil2" d="M4416 1366c-5,4 -14,0 -19,-7 -5,-7 -5,-16 0,-20 5,-4 13,0 19,7 5,8 5,17 0,20l0 0z"/>
  <path class="fil2" d="M4461 1413c-5,5 -14,4 -22,-3 -7,-7 -9,-16 -5,-21 5,-5 15,-4 22,3 7,7 10,16 5,21l0 0z"/>
  <path class="fil2" d="M4523 1440c-2,7 -11,10 -21,7 -9,-3 -16,-11 -14,-17 2,-7 11,-10 21,-7 9,3 16,11 14,17l0 0z"/>
  <path class="fil2" d="M4592 1445c0,7 -8,13 -18,13 -10,0 -18,-5 -18,-12 0,-7 8,-13 18,-13 10,0 18,5 18,12l0 0z"/>
  <path class="fil2" d="M4656 1434c1,7 -6,14 -16,16 -10,2 -19,-2 -20,-9 -1,-7 6,-14 16,-16 10,-2 19,2 20,9l0 0z"/>
  <line class="fil3 str0" x1="3124" y1="-7" x2="3124" y2= "0" />
  <line class="fil3 str1" x1="3124" y1="28" x2="3124" y2= "1889" />
  <line class="fil3 str0" x1="3124" y1="1903" x2="3124" y2= "1910" />
  <path class="fil4" d="M1851 2104c-5,-4 -12,-6 -20,-6 -3,0 -7,0 -10,1 -3,1 -6,2 -9,3 -3,2 -5,4 -6,6 -1,3 -2,6 -2,10 0,4 1,7 3,9 2,2 5,4 9,6 4,1 8,3 12,4 5,1 9,2 14,3 5,1 9,2 14,4 5,2 9,4 12,6 4,3 7,6 9,10 2,4 3,9 3,15 0,6 -1,12 -4,16 -3,5 -6,8 -11,11 -4,3 -9,5 -15,6 -6,1 -11,2 -16,2 -7,0 -13,-1 -19,-3 -6,-2 -11,-4 -16,-8 -5,-3 -8,-8 -11,-13 -3,-5 -4,-12 -4,-19l15 0c0,5 1,9 3,13 2,4 5,7 8,9 3,2 7,4 11,5 4,1 9,2 13,2 4,0 7,0 11,-1 4,-1 7,-2 10,-3 3,-2 5,-4 7,-7 2,-3 3,-6 3,-11 0,-4 -1,-7 -3,-10 -2,-3 -5,-5 -9,-6 -4,-2 -8,-3 -12,-4 -5,-1 -9,-2 -14,-3 -5,-1 -9,-2 -14,-4 -5,-1 -9,-3 -12,-5 -4,-2 -7,-5 -9,-9 -2,-4 -3,-8 -3,-14 0,-6 1,-11 4,-16 2,-4 6,-8 10,-11 4,-3 9,-5 14,-6 5,-1 10,-2 16,-2 6,0 12,1 17,2 5,1 10,4 14,7 4,3 7,7 9,12 2,5 4,10 4,17l-15 0c-1,-9 -4,-15 -9,-19z"/>
  <path class="fil4" d="M1910 2121l0 13 0 0c6,-10 16,-15 28,-15 5,0 10,1 15,3 4,2 7,6 9,11 3,-5 7,-8 11,-11 5,-3 10,-4 16,-4 4,0 8,0 12,1 4,1 6,2 9,4 3,2 4,5 6,8 1,3 2,7 2,11l0 63 -14 0 0 -56c0,-3 0,-5 -1,-8 0,-2 -1,-4 -2,-6 -1,-2 -3,-3 -5,-4 -2,-1 -5,-1 -8,-1 -7,0 -13,2 -17,6 -4,4 -6,9 -6,16l0 54 -14 0 0 -56c0,-3 0,-5 -1,-8 -1,-2 -1,-4 -3,-6 -1,-2 -3,-3 -5,-4 -2,-1 -5,-1 -8,-1 -4,0 -8,1 -11,3 -3,2 -5,4 -7,6 -2,2 -3,5 -4,7 -1,3 -1,5 -1,6l0 54 -14 0 0 -86 13 0z"/>
  <path class="fil4" d="M2086 2166c-3,1 -6,1 -9,2 -3,0 -6,1 -10,1 -3,0 -6,1 -9,2 -3,1 -5,3 -6,5 -2,2 -2,5 -2,8 0,2 0,4 1,6 1,2 2,3 4,4 2,1 3,2 5,2 2,0 4,1 6,1 5,0 9,-1 12,-2 3,-1 6,-3 8,-5 2,-2 4,-4 5,-6 1,-2 2,-4 2,-6l0 -14c-2,1 -4,2 -7,3zm20 43c-4,0 -7,-1 -9,-3 -2,-2 -3,-5 -3,-10 -4,5 -8,8 -14,10 -5,2 -11,3 -17,3 -4,0 -8,0 -11,-1 -3,-1 -6,-2 -9,-4 -3,-2 -5,-4 -6,-7 -2,-3 -2,-7 -2,-11 0,-5 1,-9 2,-12 2,-3 4,-6 7,-8 3,-2 6,-3 9,-4 4,-1 7,-2 11,-3 4,-1 8,-1 11,-2 3,0 7,-1 9,-2 3,-1 5,-2 6,-3 2,-1 2,-3 2,-6 0,-3 -1,-6 -2,-7 -1,-2 -3,-3 -5,-4 -2,-1 -4,-2 -6,-2 -2,0 -5,0 -7,0 -6,0 -11,1 -15,3 -4,2 -6,7 -7,13l-14 0c0,-5 1,-10 3,-14 2,-4 5,-7 8,-9 3,-2 7,-4 12,-5 4,-1 9,-1 14,-1 4,0 8,0 12,1 4,1 7,2 10,3 3,2 6,4 8,7 2,3 3,7 3,12l0 44c0,3 0,6 1,7 0,2 2,2 4,2 1,0 3,0 4,-1l0 11c-2,1 -6,2 -10,2z"/>
  <polygon class="fil4" points="2130,2207 2144,2207 2144,2088 2130,2088 "/>
  <polygon class="fil4" points="2167,2207 2181,2207 2181,2088 2167,2088 "/>
  <path class="fil4" d="M1415 2334l0 -13 15 0 0 -13c0,-7 2,-12 6,-16 4,-4 10,-5 18,-5 1,0 3,0 5,0 2,0 3,1 5,1l0 12c-1,0 -3,-1 -4,-1 -1,0 -3,0 -4,0 -3,0 -6,1 -8,2 -2,1 -3,4 -3,8l0 12 17 0 0 13 -17 0 0 74 -14 0 0 -74 -15 0z"/>
  <path class="fil4" d="M1485 2378c1,4 3,7 6,10 2,3 5,5 9,6 3,1 7,2 10,2 4,0 7,-1 10,-2 3,-1 6,-4 9,-6 2,-3 4,-6 6,-10 1,-4 2,-9 2,-14 0,-5 -1,-10 -2,-14 -1,-4 -3,-7 -6,-10 -2,-3 -5,-5 -9,-6 -3,-1 -7,-2 -10,-2 -4,0 -7,1 -10,2 -3,1 -6,4 -9,6 -2,3 -4,6 -6,10 -1,4 -2,9 -2,14 0,5 1,10 2,14zm-14 -32c2,-6 4,-10 8,-14 4,-4 8,-7 13,-10 5,-2 11,-4 18,-4 7,0 13,1 18,4 5,2 10,6 13,10 4,4 6,9 8,14 2,5 3,11 3,18 0,6 -1,12 -3,18 -2,5 -4,10 -8,14 -4,4 -8,7 -13,10 -5,2 -11,3 -18,3 -7,0 -13,-1 -18,-3 -5,-2 -10,-5 -13,-10 -4,-4 -6,-9 -8,-14 -2,-5 -3,-11 -3,-18 0,-6 1,-12 3,-18z"/>
  <path class="fil4" d="M1581 2321l0 18 0 0c3,-7 8,-12 13,-15 5,-3 11,-5 19,-5l0 15c-6,0 -11,1 -15,2 -4,2 -7,4 -10,7 -2,3 -4,7 -5,11 -1,4 -2,9 -2,15l0 38 -14 0 0 -86 13 0z"/>
  <path class="fil4" d="M1705 2407l0 -85 -31 0 0 -11c4,0 8,0 12,-1 4,-1 7,-2 10,-3 3,-2 6,-4 8,-7 2,-3 4,-7 4,-11l11 0 0 118 -14 0z"/>
  <path class="fil4" d="M1789 2346c-3,1 -6,3 -8,6 -2,2 -4,5 -5,8 -1,3 -2,7 -2,10 0,4 1,7 2,10 1,3 3,6 5,8 2,2 5,4 8,6 3,1 7,2 10,2 4,0 7,-1 10,-2 3,-1 5,-3 7,-6 2,-2 4,-5 5,-8 1,-3 2,-6 2,-10 0,-4 0,-7 -1,-10 -1,-3 -2,-6 -4,-8 -2,-2 -5,-4 -8,-6 -3,-1 -7,-2 -11,-2 -4,0 -8,1 -11,2zm26 -39c-3,-3 -8,-5 -14,-5 -6,0 -11,1 -15,4 -4,3 -7,7 -9,11 -2,5 -3,9 -4,15 -1,5 -1,10 -1,15l0 0c3,-5 7,-9 12,-12 5,-2 11,-4 17,-4 6,0 11,1 15,3 5,2 8,5 11,8 3,3 5,7 7,12 2,5 3,10 3,15 0,4 -1,9 -2,13 -1,5 -4,9 -7,13 -3,4 -7,7 -12,10 -5,3 -11,4 -19,4 -9,0 -16,-2 -21,-5 -5,-4 -9,-8 -12,-14 -3,-6 -5,-12 -6,-18 -1,-7 -1,-13 -1,-19 0,-8 1,-16 2,-24 1,-8 4,-14 7,-20 3,-6 8,-11 13,-14 6,-4 13,-5 21,-5 10,0 18,3 23,8 6,5 9,13 10,22l-14 0c-1,-5 -3,-10 -6,-13z"/>
  <path class="fil4" d="M1921 2352c-1,-4 -3,-7 -5,-10 -2,-3 -5,-5 -8,-7 -3,-2 -7,-3 -12,-3 -5,0 -9,1 -12,3 -3,2 -6,4 -8,7 -2,3 -4,7 -5,10 -1,4 -1,8 -1,12 0,4 1,8 2,12 1,4 3,7 5,10 2,3 5,5 8,7 3,2 8,3 13,3 5,0 9,-1 12,-3 3,-2 6,-4 8,-8 2,-3 3,-7 4,-11 1,-4 1,-8 1,-12 0,-4 -1,-8 -2,-12zm-51 -31l0 12 0 0c2,-5 6,-8 11,-10 5,-2 11,-3 17,-3 7,0 12,1 17,4 5,2 9,6 12,10 3,4 6,9 7,14 2,5 3,11 3,17 0,6 -1,12 -2,17 -2,5 -4,10 -7,14 -3,4 -7,7 -12,10 -5,2 -11,4 -17,4 -2,0 -4,0 -7,-1 -3,0 -5,-1 -8,-2 -3,-1 -5,-2 -7,-4 -2,-2 -4,-4 -6,-6l0 0 0 44 -14 0 0 -119 14 0z"/>
  <polygon class="fil4" points="1947,2321 1966,2321 1986,2351 2008,2321 2025,2321 1995,2361 2028,2407 2010,2407 1986,2372 1962,2407 1945,2407 1977,2362 "/>
  <polygon class="fil4" points="2038,2368 2086,2368 2086,2354 2038,2354 "/>
  <path class="fil4" d="M2140 2407l0 -85 -31 0 0 -11c4,0 8,0 12,-1 4,-1 7,-2 10,-3 3,-2 6,-4 8,-7 2,-3 4,-7 4,-11l11 0 0 118 -14 0z"/>
  <path class="fil4" d="M2197 2314c2,-5 4,-10 7,-13 3,-4 7,-7 12,-9 5,-2 10,-3 17,-3 5,0 10,1 14,2 5,1 8,4 12,7 3,3 6,6 8,11 2,4 3,9 3,15 0,5 -1,10 -2,14 -2,4 -4,8 -6,11 -3,3 -6,6 -9,9 -3,3 -7,5 -11,7 -4,2 -7,4 -11,7 -4,2 -7,4 -10,7 -3,2 -6,5 -8,8 -2,3 -4,6 -4,10l61 0 0 13 -77 0c1,-7 2,-13 4,-18 2,-5 4,-9 7,-13 3,-4 6,-7 10,-10 4,-3 8,-5 12,-8 5,-3 9,-6 13,-9 4,-3 7,-5 9,-8 3,-3 4,-6 6,-9 1,-3 2,-7 2,-11 0,-3 -1,-6 -2,-9 -1,-3 -3,-5 -5,-7 -2,-2 -4,-3 -7,-4 -3,-1 -6,-2 -9,-2 -4,0 -8,1 -11,3 -3,2 -5,4 -7,7 -2,3 -3,6 -4,9 -1,4 -1,7 -1,11l-14 0c0,-6 0,-12 2,-17z"/>
  <path class="fil4" d="M2303 2364c0,6 1,11 3,16 2,5 4,9 7,12 3,3 8,5 14,5 6,0 11,-2 14,-5 3,-3 6,-7 7,-12 1,-5 2,-10 3,-16 0,-6 0,-10 0,-15 0,-3 0,-6 0,-10 0,-4 0,-7 -1,-11 -1,-4 -1,-7 -2,-10 -1,-3 -2,-6 -4,-9 -2,-3 -4,-5 -7,-6 -3,-2 -6,-2 -10,-2 -4,0 -7,1 -10,2 -3,2 -5,4 -7,6 -2,2 -3,5 -4,9 -1,3 -2,7 -2,10 -1,4 -1,7 -1,11 0,4 0,7 0,10 0,4 0,9 0,15zm-15 -28c0,-5 1,-9 2,-14 1,-4 2,-9 4,-13 2,-4 4,-8 7,-11 3,-3 7,-5 11,-7 4,-2 10,-3 16,-3 6,0 11,1 16,3 4,2 8,4 11,7 3,3 5,7 7,11 2,4 3,8 4,13 1,4 1,9 2,14 0,5 0,9 0,14 0,4 0,9 0,13 0,5 -1,9 -2,14 -1,4 -2,9 -4,13 -2,4 -4,7 -7,10 -3,3 -7,5 -11,7 -4,2 -10,3 -16,3 -6,0 -11,-1 -16,-3 -4,-2 -8,-4 -11,-7 -3,-3 -5,-6 -7,-10 -2,-4 -3,-8 -4,-13 -1,-4 -1,-9 -2,-14 0,-5 0,-9 0,-13 0,-4 0,-9 0,-14z"/>
  <path class="fil4" d="M2449 2352c-1,-4 -3,-7 -5,-10 -2,-3 -5,-5 -8,-7 -3,-2 -7,-3 -12,-3 -5,0 -9,1 -12,3 -3,2 -6,4 -8,7 -2,3 -4,7 -5,10 -1,4 -1,8 -1,12 0,4 1,8 2,12 1,4 3,7 5,10 2,3 5,5 8,7 3,2 8,3 12,3 5,0 9,-1 12,-3 3,-2 6,-4 8,-8 2,-3 3,-7 4,-11 1,-4 1,-8 1,-12 0,-4 -1,-8 -2,-12zm-51 -31l0 12 0 0c2,-5 6,-8 11,-10 5,-2 11,-3 17,-3 7,0 12,1 17,4 5,2 9,6 12,10 3,4 6,9 7,14 2,5 3,11 3,17 0,6 -1,12 -2,17 -2,5 -4,10 -7,14 -3,4 -7,7 -12,10 -5,2 -11,4 -17,4 -2,0 -4,0 -7,-1 -3,0 -5,-1 -8,-2 -3,-1 -5,-2 -7,-4 -2,-2 -4,-4 -6,-6l0 0 0 44 -14 0 0 -119 14 0z"/>
  <polygon class="fil4" points="2475,2321 2494,2321 2514,2351 2536,2321 2553,2321 2523,2361 2556,2407 2538,2407 2514,2372 2490,2407 2473,2407 2505,2362 "/>
  <polygon class="fil4" points="4662,2088 4662,2194 4725,2194 4725,2207 4646,2207 4646,2088 "/>
  <path class="fil4" d="M4782 2166c-3,1 -6,1 -9,2 -3,0 -6,1 -10,1 -3,1 -6,1 -9,2 -3,1 -5,3 -6,5 -2,2 -2,5 -2,8 0,2 0,4 1,6 1,2 2,3 4,4 1,1 3,2 5,2 2,0 4,1 6,1 5,0 9,-1 12,-2 3,-1 6,-3 8,-5 2,-2 4,-4 5,-6 1,-2 2,-4 2,-6l0 -15c-2,1 -4,2 -7,3zm20 43c-4,0 -7,-1 -9,-3 -2,-2 -3,-5 -3,-10 -4,5 -8,8 -14,10 -5,2 -11,3 -17,3 -4,0 -8,0 -11,-1 -3,-1 -6,-2 -9,-4 -3,-2 -5,-4 -6,-8 -2,-3 -2,-7 -2,-11 0,-5 1,-9 2,-12 2,-3 4,-6 7,-8 3,-2 6,-3 9,-4 4,-1 7,-2 11,-3 4,-1 8,-1 11,-2 4,0 7,-1 9,-2 3,-1 5,-2 6,-3 2,-1 2,-3 2,-6 0,-3 -1,-6 -2,-8 -1,-2 -3,-3 -5,-4 -2,-1 -4,-2 -6,-2 -2,0 -5,-1 -7,-1 -6,0 -11,1 -15,3 -4,2 -6,7 -7,13l-14 0c0,-5 1,-10 3,-14 2,-4 5,-7 8,-9 3,-2 7,-4 12,-5 4,-1 9,-2 14,-2 4,0 8,0 12,1 4,1 7,2 10,3 3,2 6,4 8,7 2,3 3,7 3,12l0 44c0,3 0,6 1,7 0,2 2,2 4,2 1,0 3,0 4,-1l0 11c-2,1 -6,2 -10,2z"/>
  <path class="fil4" d="M4838 2121l0 18 0 0c3,-7 8,-12 13,-16 5,-3 11,-5 19,-5l0 15c-6,0 -11,1 -15,2 -4,2 -7,4 -10,7 -2,3 -4,7 -5,11 -1,4 -2,9 -2,15l0 38 -14 0 0 -86 13 0z"/>
  <path class="fil4" d="M4923 2193c3,-2 6,-4 8,-8 2,-3 3,-7 4,-11 1,-4 1,-8 1,-12 0,-4 0,-8 -1,-11 -1,-4 -2,-7 -4,-10 -2,-3 -4,-5 -8,-7 -3,-2 -7,-3 -11,-3 -5,0 -8,1 -12,3 -3,2 -6,4 -8,7 -2,3 -4,6 -5,10 -1,4 -1,8 -1,12 0,4 0,8 1,12 1,4 2,7 4,11 2,3 4,6 8,8 3,2 7,3 12,3 5,0 9,-1 12,-3zm18 39c-6,7 -17,11 -30,11 -4,0 -8,0 -12,-1 -4,-1 -8,-2 -11,-4 -3,-2 -6,-5 -8,-8 -2,-3 -3,-7 -4,-12l14 0c0,3 1,5 2,7 2,2 3,3 6,4 2,1 5,2 7,2 3,1 5,1 7,1 5,0 9,-1 12,-2 3,-2 6,-4 8,-7 2,-3 4,-6 5,-10 1,-4 1,-8 1,-13l0 -6 0 0c-2,5 -6,9 -11,12 -5,3 -10,4 -16,4 -6,0 -12,-1 -17,-4 -5,-2 -9,-5 -12,-9 -3,-4 -6,-9 -7,-14 -2,-5 -2,-11 -2,-17 0,-5 1,-10 2,-16 1,-5 4,-10 7,-15 3,-4 7,-8 12,-11 5,-3 11,-4 19,-4 5,0 10,1 15,4 5,2 8,6 11,11l0 0 0 -12 13 0 0 79c0,14 -3,25 -10,32z"/>
  <path class="fil4" d="M5030 2146c-1,-3 -3,-6 -5,-8 -2,-2 -5,-4 -8,-5 -3,-1 -6,-2 -10,-2 -4,0 -7,1 -10,2 -3,1 -5,3 -8,5 -2,2 -4,5 -5,8 -1,3 -2,6 -2,9l49 0c0,-3 -1,-7 -2,-10zm3 55c-6,5 -15,7 -24,7 -7,0 -13,-1 -18,-3 -5,-2 -9,-5 -13,-9 -3,-4 -6,-9 -8,-14 -2,-6 -3,-12 -3,-18 0,-7 1,-13 3,-18 2,-5 5,-10 8,-14 4,-4 8,-7 13,-9 5,-2 10,-3 16,-3 8,0 14,2 19,5 5,3 9,7 12,12 3,5 5,10 6,16 1,6 2,11 1,16l-64 0c0,4 0,7 1,11 1,3 3,6 5,9 2,3 5,5 8,6 3,2 8,2 12,2 6,0 11,-1 15,-4 4,-3 6,-7 8,-13l14 0c-2,10 -6,17 -13,22z"/>
  <path class="fil4" d="M5074 2121l0 18 0 0c3,-7 8,-12 13,-16 5,-3 11,-5 19,-5l0 15c-6,0 -11,1 -15,2 -4,2 -7,4 -10,7 -2,3 -4,7 -5,11 -1,4 -2,9 -2,15l0 38 -14 0 0 -86 13 0z"/>
  <path class="fil4" d="M4420 2334l0 -13 15 0 0 -13c0,-7 2,-12 6,-16 4,-4 10,-5 18,-5 1,0 3,0 5,0 2,0 3,1 5,1l0 12c-1,0 -3,-1 -4,-1 -1,0 -3,0 -4,0 -3,0 -6,1 -8,2 -2,1 -3,4 -3,8l0 12 17 0 0 13 -17 0 0 74 -14 0 0 -74 -15 0z"/>
  <path class="fil4" d="M4491 2378c1,4 3,7 6,10 2,3 5,5 9,6 3,1 7,2 10,2 4,0 7,-1 10,-2 3,-1 6,-4 9,-6 2,-3 4,-6 6,-10 1,-4 2,-9 2,-14 0,-5 -1,-10 -2,-14 -1,-4 -3,-7 -6,-10 -2,-3 -5,-5 -9,-6 -3,-1 -7,-2 -10,-2 -4,0 -7,1 -10,2 -3,1 -6,4 -9,6 -2,3 -4,6 -6,10 -1,4 -2,9 -2,14 0,5 1,10 2,14zm-14 -32c2,-6 4,-10 8,-14 4,-4 8,-7 13,-10 5,-2 11,-4 18,-4 7,0 13,1 18,4 5,2 10,6 13,10 4,4 6,9 8,14 2,6 3,11 3,18 0,6 -1,12 -3,18 -2,5 -4,10 -8,14 -4,4 -8,7 -13,9 -5,2 -11,3 -18,3 -7,0 -13,-1 -18,-3 -5,-2 -10,-5 -13,-9 -4,-4 -6,-9 -8,-14 -2,-5 -3,-11 -3,-18 0,-6 1,-12 3,-18z"/>
  <path class="fil4" d="M4587 2321l0 18 0 0c3,-7 8,-12 13,-16 5,-3 11,-5 19,-5l0 15c-6,0 -11,1 -15,2 -4,2 -7,4 -10,7 -2,3 -4,7 -5,11 -1,4 -2,9 -2,15l0 38 -14 0 0 -86 13 0z"/>
  <path class="fil4" d="M4710 2407l0 -85 -31 0 0 -11c4,0 8,0 12,-1 4,-1 7,-2 10,-3 3,-2 6,-4 8,-7 2,-3 4,-7 4,-11l11 0 0 118 -14 0z"/>
  <path class="fil4" d="M4767 2314c2,-5 4,-10 7,-13 3,-4 7,-7 12,-9 5,-2 10,-3 17,-3 5,0 10,1 14,2 5,2 8,4 12,7 3,3 6,6 8,11 2,4 3,9 3,15 0,5 -1,10 -2,14 -2,4 -4,8 -6,11 -3,3 -6,6 -9,9 -3,3 -7,5 -11,7 -4,2 -7,4 -11,7 -4,2 -7,4 -10,7 -3,2 -6,5 -8,8 -2,3 -4,6 -4,10l61 0 0 13 -77 0c1,-7 2,-13 4,-18 2,-5 4,-9 7,-13 3,-4 6,-7 10,-10 4,-3 8,-5 12,-8 5,-3 9,-6 13,-9 4,-3 7,-5 9,-8 2,-3 4,-6 6,-9 1,-3 2,-7 2,-11 0,-3 -1,-6 -2,-9 -1,-3 -3,-5 -5,-7 -2,-2 -4,-3 -7,-4 -3,-1 -6,-2 -9,-2 -4,0 -8,1 -11,3 -3,2 -5,4 -7,7 -2,3 -3,6 -4,9 -1,4 -1,7 -1,11l-14 0c0,-6 0,-12 2,-17z"/>
  <path class="fil4" d="M4873 2364c0,6 1,11 3,16 2,5 4,9 7,12 3,3 8,5 14,5 6,0 11,-2 14,-5 3,-3 6,-7 7,-12 2,-5 2,-10 3,-16 0,-5 0,-10 0,-15 0,-3 0,-6 0,-10 0,-4 0,-7 -1,-11 -1,-4 -1,-7 -2,-10 -1,-3 -2,-6 -4,-9 -2,-3 -4,-5 -7,-6 -3,-2 -6,-2 -10,-2 -4,0 -7,1 -10,2 -3,2 -5,4 -7,6 -2,3 -3,5 -4,9 -1,3 -2,7 -2,10 0,4 -1,7 -1,11 0,4 0,7 0,10 0,4 0,9 0,15zm-15 -28c0,-5 1,-9 2,-14 1,-4 2,-9 4,-13 2,-4 4,-8 7,-11 3,-3 7,-5 11,-7 4,-2 10,-3 16,-3 6,0 11,1 16,3 4,2 8,4 11,7 3,3 5,7 7,11 2,4 3,8 4,13 1,4 1,9 2,14 0,5 0,9 0,14 0,4 0,9 0,14 0,5 -1,9 -2,14 -1,4 -2,9 -4,13 -2,4 -4,7 -7,10 -3,3 -7,5 -11,7 -4,2 -10,3 -16,3 -6,0 -11,-1 -16,-3 -4,-2 -8,-4 -11,-7 -3,-3 -5,-6 -7,-10 -2,-4 -3,-8 -4,-13 -1,-4 -1,-9 -2,-14 0,-5 0,-9 0,-14 0,-4 0,-9 0,-14z"/>
  <path class="fil4" d="M5019 2352c-1,-4 -3,-7 -5,-10 -2,-3 -5,-5 -8,-7 -3,-2 -7,-3 -12,-3 -5,0 -9,1 -12,3 -3,2 -6,4 -8,7 -2,3 -4,7 -5,10 -1,4 -1,8 -1,12 0,4 1,8 1,12 1,4 3,7 5,10 2,3 5,5 8,7 3,2 8,3 12,3 5,0 9,-1 12,-3 3,-2 6,-4 8,-8 2,-3 3,-7 4,-11 1,-4 1,-8 1,-12 0,-4 -1,-8 -2,-12zm-51 -31l0 12 0 0c2,-5 6,-8 11,-10 5,-2 11,-3 17,-3 7,0 12,1 17,4 5,2 9,6 12,10 3,4 6,9 7,14 2,5 3,11 3,17 0,6 -1,12 -2,17 -2,5 -4,10 -7,14 -3,4 -7,7 -12,10 -5,2 -11,4 -17,4 -2,0 -4,0 -7,-1 -3,0 -5,-1 -8,-2 -3,-1 -5,-2 -7,-4 -2,-2 -4,-4 -6,-6l0 0 0 44 -14 0 0 -119 14 0z"/>
  <polygon class="fil4" points="5046,2321 5064,2321 5085,2351 5106,2321 5123,2321 5093,2361 5127,2407 5109,2407 5085,2372 5061,2407 5043,2407 5076,2362 "/>
  <polygon class="fil4" points="5267,2359 5267,2371 5230,2371 5230,2407 5219,2407 5219,2371 5183,2371 5183,2359 5219,2359 5219,2323 5230,2323 5230,2359 "/>
  <path class="fil5" d="M2120 4590c-125,0 -226,101 -226,226 0,100 65,185 155,215 11,2 15,-5 15,-11 0,-5 0,-20 0,-38 -63,14 -76,-30 -76,-30 -10,-26 -25,-33 -25,-33 -21,-14 2,-14 2,-14 23,2 35,23 35,23 20,35 53,25 66,19 2,-15 8,-25 14,-30 -50,-6 -103,-25 -103,-112 0,-25 9,-45 23,-61 -2,-6 -10,-29 2,-60 0,0 19,-6 62,23 18,-5 37,-8 57,-8 19,0 39,3 57,8 43,-29 62,-23 62,-23 12,31 5,54 2,60 15,16 23,36 23,61 0,87 -53,106 -103,112 8,7 15,21 15,42 0,30 0,55 0,62 0,6 4,13 16,11 90,-30 155,-115 155,-215 0,-125 -101,-226 -226,-226z"/>
  <path class="fil5" d="M4870 3909c-463,0 -839,375 -839,839 0,371 240,685 574,796 42,8 57,-18 57,-40 0,-20 -1,-86 -1,-156 -233,51 -283,-99 -283,-99 -38,-97 -93,-123 -93,-123 -76,-52 6,-51 6,-51 84,6 129,86 129,86 75,128 196,91 244,70 8,-54 29,-91 53,-112 -186,-21 -382,-93 -382,-415 0,-92 33,-166 86,-225 -9,-21 -37,-106 8,-222 0,0 70,-23 231,86 67,-19 139,-28 210,-28 71,0 143,10 210,28 160,-109 230,-86 230,-86 46,116 17,201 8,222 54,59 86,134 86,225 0,322 -196,393 -383,414 30,26 57,77 57,155 0,112 -1,203 -1,230 0,22 15,48 58,40 333,-111 573,-425 573,-796 0,-463 -376,-839 -839,-839z"/>
  <path class="fil6" d="M4349 5113c-2,4 -8,5 -14,3 -6,-3 -10,-8 -8,-13 2,-4 8,-5 14,-3 6,3 10,8 7,13l0 0z"/>
  <path class="fil6" d="M4382 5151c-4,4 -12,2 -17,-4 -5,-6 -7,-14 -2,-17 4,-4 12,-2 17,4 5,6 7,14 2,17l0 0z"/>
  <path class="fil6" d="M4416 5199c-5,4 -14,0 -19,-7 -5,-7 -5,-16 0,-20 5,-4 13,0 19,7 5,8 5,17 0,20l0 0z"/>
  <path class="fil6" d="M4461 5246c-5,5 -14,4 -22,-3 -7,-7 -9,-16 -5,-21 5,-5 15,-4 22,3 7,7 10,16 5,21l0 0z"/>
  <path class="fil6" d="M4523 5273c-2,7 -11,10 -21,7 -9,-3 -16,-11 -14,-17 2,-7 11,-10 21,-7 9,3 16,11 14,17l0 0z"/>
  <path class="fil6" d="M4592 5278c0,7 -8,13 -18,13 -10,0 -18,-5 -18,-12 0,-7 8,-13 18,-13 10,0 18,5 18,12l0 0z"/>
  <path class="fil6" d="M4656 5267c1,7 -6,14 -16,16 -10,2 -19,-2 -20,-9 -1,-7 6,-14 16,-16 10,-2 19,2 20,9l0 0z"/>
  <line class="fil3 str0" x1="3124" y1="3827" x2="3124" y2= "3833" />
  <line class="fil3 str1" x1="3124" y1="3861" x2="3124" y2= "5722" />
  <line class="fil3 str0" x1="3124" y1="5736" x2="3124" y2= "5743" />
  <path class="fil4" d="M1851 5938c-5,-4 -12,-6 -20,-6 -3,0 -7,0 -10,1 -3,1 -6,2 -9,3 -3,2 -5,4 -6,6 -1,3 -2,6 -2,10 0,4 1,7 3,9 2,2 5,4 9,6 4,1 8,3 12,4 5,1 9,2 14,3 5,1 9,2 14,4 5,2 9,4 12,6 4,3 7,6 9,10 2,4 3,9 3,15 0,6 -1,12 -4,16 -3,5 -6,8 -11,11 -4,3 -9,5 -15,6 -6,1 -11,2 -16,2 -7,0 -13,-1 -19,-3 -6,-2 -11,-4 -16,-8 -5,-3 -8,-8 -11,-13 -3,-5 -4,-12 -4,-19l15 0c0,5 1,9 3,13 2,4 5,7 8,9 3,2 7,4 11,5 4,1 9,2 13,2 4,0 7,0 11,-1 4,-1 7,-2 10,-3 3,-2 5,-4 7,-7 2,-3 3,-6 3,-11 0,-4 -1,-7 -3,-10 -2,-3 -5,-5 -9,-6 -4,-2 -8,-3 -12,-4 -5,-1 -9,-2 -14,-3 -5,-1 -9,-2 -14,-4 -5,-1 -9,-3 -12,-5 -4,-2 -7,-5 -9,-9 -2,-4 -3,-8 -3,-14 0,-6 1,-11 4,-16 2,-4 6,-8 10,-11 4,-3 9,-5 14,-6 5,-1 10,-2 16,-2 6,0 12,1 17,2 5,1 10,4 14,7 4,3 7,7 9,12 2,5 4,10 4,17l-15 0c-1,-9 -4,-15 -9,-19z"/>
  <path class="fil4" d="M1910 5954l0 13 0 0c6,-10 16,-15 28,-15 5,0 10,1 15,3 4,2 7,6 9,11 3,-5 7,-8 11,-11 5,-3 10,-4 16,-4 4,0 8,0 12,1 4,1 6,2 9,4 3,2 4,5 6,8 1,3 2,7 2,11l0 63 -14 0 0 -56c0,-3 0,-5 -1,-7 0,-2 -1,-4 -2,-6 -1,-2 -3,-3 -5,-4 -2,-1 -5,-1 -8,-1 -7,0 -13,2 -17,6 -4,4 -6,9 -6,16l0 54 -14 0 0 -56c0,-3 0,-5 -1,-8 -1,-2 -1,-4 -3,-6 -1,-2 -3,-3 -5,-4 -2,-1 -5,-1 -8,-1 -4,0 -8,1 -11,3 -3,2 -5,4 -7,6 -2,2 -3,5 -4,7 -1,3 -1,5 -1,6l0 54 -14 0 0 -86 13 0z"/>
  <path class="fil4" d="M2086 5999c-3,1 -6,1 -9,2 -3,0 -6,1 -10,1 -3,0 -6,1 -9,2 -3,1 -5,3 -6,5 -2,2 -2,5 -2,8 0,2 0,4 1,6 1,2 2,3 4,4 2,1 3,2 5,2 2,0 4,1 6,1 5,0 9,-1 12,-2 3,-1 6,-3 8,-5 2,-2 4,-4 5,-6 1,-2 2,-4 2,-6l0 -14c-2,1 -4,2 -7,3zm20 43c-4,0 -7,-1 -9,-3 -2,-2 -3,-5 -3,-10 -4,5 -8,8 -14,10 -5,2 -11,3 -17,3 -4,0 -8,0 -11,-1 -3,-1 -6,-2 -9,-4 -3,-2 -5,-4 -6,-7 -2,-3 -2,-7 -2,-11 0,-5 1,-9 2,-12 2,-3 4,-6 7,-8 3,-2 6,-3 9,-4 4,-1 7,-2 11,-3 4,-1 8,-1 11,-2 3,0 7,-1 9,-2 3,-1 5,-2 6,-3 2,-1 2,-3 2,-6 0,-3 -1,-6 -2,-7 -1,-2 -3,-3 -5,-4 -2,-1 -4,-2 -6,-2 -2,0 -5,0 -7,0 -6,0 -11,1 -15,3 -4,2 -6,7 -7,13l-14 0c0,-5 1,-10 3,-14 2,-4 5,-7 8,-9 3,-2 7,-4 12,-5 4,-1 9,-1 14,-1 4,0 8,0 12,1 4,1 7,2 10,3 3,2 6,4 8,7 2,3 3,7 3,12l0 44c0,3 0,6 1,7 0,2 2,2 4,2 1,0 3,0 4,-1l0 11c-2,1 -6,2 -10,2z"/>
  <polygon class="fil4" points="2130,6041 2144,6041 2144,5922 2130,5922 "/>
  <polygon class="fil4" points="2167,6041 2181,6041 2181,5922 2167,5922 "/>
  <path class="fil4" d="M1415 6167l0 -12 15 0 0 -13c0,-7 2,-12 6,-16 4,-4 10,-5 18,-5 1,0 3,0 5,0 2,0 3,1 5,1l0 12c-1,0 -3,-1 -4,-1 -1,0 -3,0 -4,0 -3,0 -6,1 -8,2 -2,1 -3,4 -3,8l0 12 17 0 0 12 -17 0 0 74 -14 0 0 -74 -15 0z"/>
  <path class="fil4" d="M1485 6211c1,4 3,7 6,10 2,3 5,5 9,6 3,1 7,2 10,2 4,0 7,-1 10,-2 3,-1 6,-4 9,-6 2,-3 4,-6 6,-10 1,-4 2,-9 2,-14 0,-5 -1,-10 -2,-14 -1,-4 -3,-7 -6,-10 -2,-3 -5,-5 -9,-6 -3,-1 -7,-2 -10,-2 -4,0 -7,1 -10,2 -3,1 -6,4 -9,6 -2,3 -4,6 -6,10 -1,4 -2,9 -2,14 0,5 1,10 2,14zm-14 -32c2,-6 4,-10 8,-14 4,-4 8,-7 13,-10 5,-2 11,-4 18,-4 7,0 13,1 18,4 5,2 10,6 13,10 4,4 6,9 8,14 2,5 3,11 3,18 0,6 -1,12 -3,18 -2,5 -4,10 -8,14 -4,4 -8,7 -13,10 -5,2 -11,3 -18,3 -7,0 -13,-1 -18,-3 -5,-2 -10,-5 -13,-10 -4,-4 -6,-9 -8,-14 -2,-5 -3,-11 -3,-18 0,-6 1,-12 3,-18z"/>
  <path class="fil4" d="M1581 6154l0 18 0 0c3,-7 8,-12 13,-15 5,-3 11,-5 19,-5l0 15c-6,0 -11,1 -15,2 -4,2 -7,4 -10,7 -2,3 -4,7 -5,11 -1,4 -2,9 -2,15l0 38 -14 0 0 -86 13 0z"/>
  <path class="fil4" d="M1705 6241l0 -85 -31 0 0 -11c4,0 8,0 12,-1 4,-1 7,-2 10,-3 3,-2 6,-4 8,-7 2,-3 4,-7 4,-11l11 0 0 118 -14 0z"/>
  <path class="fil4" d="M1789 6179c-3,1 -6,3 -8,6 -2,2 -4,5 -5,8 -1,3 -2,7 -2,10 0,4 1,7 2,10 1,3 3,6 5,8 2,2 5,4 8,6 3,1 7,2 10,2 4,0 7,-1 10,-2 3,-1 5,-3 7,-6 2,-2 4,-5 5,-8 1,-3 2,-6 2,-10 0,-4 0,-7 -1,-10 -1,-3 -2,-6 -4,-8 -2,-2 -5,-4 -8,-6 -3,-1 -7,-2 -11,-2 -4,0 -8,1 -11,2zm26 -39c-3,-3 -8,-5 -14,-5 -6,0 -11,1 -15,4 -4,3 -7,7 -9,11 -2,5 -3,9 -4,15 -1,5 -1,10 -1,15l0 0c3,-5 7,-9 12,-12 5,-2 11,-4 17,-4 6,0 11,1 15,3 5,2 8,5 11,8 3,3 5,7 7,12 2,5 3,10 3,15 0,4 -1,9 -2,13 -1,5 -4,9 -7,13 -3,4 -7,7 -12,10 -5,3 -11,4 -19,4 -9,0 -16,-2 -21,-5 -5,-4 -9,-8 -12,-14 -3,-6 -5,-12 -6,-18 -1,-7 -1,-13 -1,-19 0,-8 1,-16 2,-24 1,-8 4,-14 7,-20 3,-6 8,-11 13,-14 6,-4 13,-5 21,-5 10,0 18,3 23,8 6,5 9,13 10,22l-14 0c-1,-5 -3,-10 -6,-13z"/>
  <path class="fil4" d="M1921 6185c-1,-4 -3,-7 -5,-10 -2,-3 -5,-5 -8,-7 -3,-2 -7,-3 -12,-3 -5,0 -9,1 -12,3 -3,2 -6,4 -8,7 -2,3 -4,7 -5,10 -1,4 -1,8 -1,12 0,4 1,8 2,12 1,4 3,7 5,10 2,3 5,5 8,7 3,2 8,3 13,3 5,0 9,-1 12,-3 3,-2 6,-4 8,-7 2,-3 3,-7 4,-11 1,-4 1,-8 1,-12 0,-4 -1,-8 -2,-12zm-51 -31l0 12 0 0c2,-5 6,-8 11,-10 5,-2 11,-3 17,-3 7,0 12,1 17,4 5,2 9,6 12,10 3,4 6,9 7,14 2,5 3,11 3,17 0,6 -1,12 -2,17 -2,5 -4,10 -7,14 -3,4 -7,7 -12,10 -5,2 -11,4 -17,4 -2,0 -4,0 -7,-1 -3,0 -5,-1 -8,-2 -3,-1 -5,-2 -7,-4 -2,-2 -4,-4 -6,-6l0 0 0 44 -14 0 0 -119 14 0z"/>
  <polygon class="fil4" points="1947,6154 1966,6154 1986,6185 2008,6154 2025,6154 1995,6194 2028,6241 2010,6241 1986,6205 1962,6241 1945,6241 1977,6195 "/>
  <polygon class="fil4" points="2038,6201 2086,6201 2086,6188 2038,6188 "/>
  <path class="fil4" d="M2140 6241l0 -85 -31 0 0 -11c4,0 8,0 12,-1 4,-1 7,-2 10,-3 3,-2 6,-4 8,-7 2,-3 4,-7 4,-11l11 0 0 118 -14 0z"/>
  <path class="fil4" d="M2197 6148c2,-5 4,-10 7,-13 3,-4 7,-7 12,-9 5,-2 10,-3 17,-3 5,0 10,1 14,2 5,1 8,4 12,7 3,3 6,6 8,11 2,4 3,9 3,15 0,5 -1,10 -2,14 -2,4 -4,8 -6,11 -3,3 -6,6 -9,9 -3,3 -7,5 -11,7 -4,2 -7,4 -11,7 -4,2 -7,4 -10,7 -3,2 -6,5 -8,8 -2,3 -4,6 -4,10l61 0 0 13 -77 0c1,-7 2,-13 4,-18 2,-5 4,-9 7,-13 3,-4 6,-7 10,-10 4,-3 8,-5 12,-8 5,-3 9,-6 13,-9 4,-3 7,-5 9,-8 3,-3 4,-6 6,-9 1,-3 2,-7 2,-11 0,-3 -1,-6 -2,-9 -1,-3 -3,-5 -5,-7 -2,-2 -4,-3 -7,-4 -3,-1 -6,-2 -9,-2 -4,0 -8,1 -11,3 -3,2 -5,4 -7,7 -2,3 -3,6 -4,9 -1,4 -1,7 -1,11l-14 0c0,-6 0,-12 2,-17z"/>
  <path class="fil4" d="M2303 6197c0,5 1,11 3,16 2,5 4,9 7,12 3,3 8,5 14,5 6,0 11,-2 14,-5 3,-3 6,-7 7,-12 1,-5 2,-10 3,-16 0,-6 0,-10 0,-15 0,-3 0,-6 0,-10 0,-3 0,-7 -1,-10 -1,-4 -1,-7 -2,-10 -1,-3 -2,-6 -4,-9 -2,-2 -4,-5 -7,-6 -3,-2 -6,-2 -10,-2 -4,0 -7,1 -10,2 -3,2 -5,4 -7,6 -2,2 -3,5 -4,9 -1,3 -2,7 -2,10 -1,4 -1,7 -1,10 0,4 0,7 0,10 0,4 0,9 0,15zm-15 -28c0,-5 1,-9 2,-14 1,-4 2,-9 4,-13 2,-4 4,-7 7,-10 3,-3 7,-5 11,-7 4,-2 10,-3 16,-3 6,0 11,1 16,3 4,2 8,4 11,7 3,3 5,7 7,10 2,4 3,8 4,13 1,4 1,9 2,14 0,5 0,9 0,14 0,4 0,9 0,13 0,5 -1,9 -2,14 -1,4 -2,9 -4,13 -2,4 -4,7 -7,10 -3,3 -7,5 -11,7 -4,2 -10,3 -16,3 -6,0 -11,-1 -16,-3 -4,-2 -8,-4 -11,-7 -3,-3 -5,-6 -7,-10 -2,-4 -3,-8 -4,-13 -1,-4 -1,-9 -2,-14 0,-5 0,-9 0,-13 0,-4 0,-9 0,-14z"/>
  <path class="fil4" d="M2449 6185c-1,-4 -3,-7 -5,-10 -2,-3 -5,-5 -8,-7 -3,-2 -7,-3 -12,-3 -5,0 -9,1 -12,3 -3,2 -6,4 -8,7 -2,3 -4,7 -5,10 -1,4 -1,8 -1,12 0,4 1,8 2,12 1,4 3,7 5,10 2,3 5,5 8,7 3,2 8,3 12,3 5,0 9,-1 12,-3 3,-2 6,-4 8,-7 2,-3 3,-7 4,-11 1,-4 1,-8 1,-12 0,-4 -1,-8 -2,-12zm-51 -31l0 12 0 0c2,-5 6,-8 11,-10 5,-2 11,-3 17,-3 7,0 12,1 17,4 5,2 9,6 12,10 3,4 6,9 7,14 2,5 3,11 3,17 0,6 -1,12 -2,17 -2,5 -4,10 -7,14 -3,4 -7,7 -12,10 -5,2 -11,4 -17,4 -2,0 -4,0 -7,-1 -3,0 -5,-1 -8,-2 -3,-1 -5,-2 -7,-4 -2,-2 -4,-4 -6,-6l0 0 0 44 -14 0 0 -119 14 0z"/>
  <polygon class="fil4" points="2475,6154 2494,6154 2514,6185 2536,6154 2553,6154 2523,6194 2556,6241 2538,6241 2514,6205 2490,6241 2473,6241 2505,6195 "/>
  <polygon class="fil4" points="4662,5922 4662,6027 4725,6027 4725,6041 4646,6041 4646,5922 "/>
  <path class="fil4" d="M4782 5999c-3,1 -6,1 -9,2 -3,0 -6,1 -10,1 -3,1 -6,1 -9,2 -3,1 -5,3 -6,5 -2,2 -2,5 -2,8 0,2 0,4 1,6 1,2 2,3 4,4 1,1 3,2 5,2 2,0 4,1 6,1 5,0 9,-1 12,-2 3,-1 6,-3 8,-5 2,-2 4,-4 5,-6 1,-2 2,-4 2,-6l0 -15c-2,1 -4,2 -7,3zm20 43c-4,0 -7,-1 -9,-3 -2,-2 -3,-5 -3,-10 -4,5 -8,8 -14,10 -5,2 -11,3 -17,3 -4,0 -8,0 -11,-1 -3,-1 -6,-2 -9,-4 -3,-2 -5,-4 -6,-8 -2,-3 -2,-7 -2,-11 0,-5 1,-9 2,-12 2,-3 4,-6 7,-8 3,-2 6,-3 9,-4 4,-1 7,-2 11,-3 4,-1 8,-1 11,-2 4,0 7,-1 9,-2 3,-1 5,-2 6,-3 2,-1 2,-3 2,-6 0,-3 -1,-6 -2,-8 -1,-2 -3,-3 -5,-4 -2,-1 -4,-2 -6,-2 -2,0 -5,-1 -7,-1 -6,0 -11,1 -15,3 -4,2 -6,7 -7,13l-14 0c0,-5 1,-10 3,-14 2,-4 5,-7 8,-9 3,-2 7,-4 12,-5 4,-1 9,-2 14,-2 4,0 8,0 12,1 4,1 7,2 10,3 3,2 6,4 8,7 2,3 3,7 3,12l0 44c0,3 0,6 1,7 0,2 2,2 4,2 1,0 3,0 4,-1l0 11c-2,1 -6,2 -10,2z"/>
  <path class="fil4" d="M4838 5954l0 18 0 0c3,-7 8,-12 13,-16 5,-3 11,-5 19,-5l0 15c-6,0 -11,1 -15,2 -4,2 -7,4 -10,7 -2,3 -4,7 -5,11 -1,4 -2,9 -2,15l0 38 -14 0 0 -86 13 0z"/>
  <path class="fil4" d="M4923 6026c3,-2 6,-4 8,-8 2,-3 3,-7 4,-11 1,-4 1,-8 1,-12 0,-4 0,-7 -1,-11 -1,-4 -2,-7 -4,-10 -2,-3 -4,-5 -8,-7 -3,-2 -7,-3 -11,-3 -5,0 -8,1 -12,3 -3,2 -6,4 -8,7 -2,3 -4,6 -5,10 -1,4 -1,8 -1,12 0,4 0,8 1,12 1,4 2,7 4,11 2,3 4,6 8,8 3,2 7,3 12,3 5,0 9,-1 12,-3zm18 39c-6,7 -17,11 -30,11 -4,0 -8,0 -12,-1 -4,-1 -8,-2 -11,-4 -3,-2 -6,-5 -8,-8 -2,-3 -3,-7 -4,-12l14 0c0,3 1,5 2,7 2,2 3,3 6,4 2,1 5,2 7,2 3,0 5,1 7,1 5,0 9,-1 12,-2 3,-2 6,-4 8,-7 2,-3 4,-6 5,-10 1,-4 1,-8 1,-13l0 -6 0 0c-2,5 -6,9 -11,12 -5,3 -10,4 -16,4 -6,0 -12,-1 -17,-4 -5,-2 -9,-5 -12,-9 -3,-4 -6,-9 -7,-14 -2,-5 -2,-11 -2,-17 0,-5 1,-10 2,-16 1,-5 4,-10 7,-15 3,-4 7,-8 12,-11 5,-3 11,-4 19,-4 5,0 10,1 15,4 5,2 8,6 11,11l0 0 0 -12 13 0 0 79c0,14 -3,25 -10,32z"/>
  <path class="fil4" d="M5030 5980c-1,-3 -3,-6 -5,-8 -2,-2 -5,-4 -8,-5 -3,-1 -6,-2 -10,-2 -4,0 -7,1 -10,2 -3,1 -5,3 -8,5 -2,2 -4,5 -5,8 -1,3 -2,6 -2,9l49 0c0,-3 -1,-7 -2,-10zm3 55c-6,5 -15,7 -24,7 -7,0 -13,-1 -18,-3 -5,-2 -9,-5 -13,-9 -3,-4 -6,-9 -8,-14 -2,-6 -3,-12 -3,-18 0,-7 1,-13 3,-18 2,-5 5,-10 8,-14 4,-4 8,-7 13,-9 5,-2 10,-3 16,-3 8,0 14,2 19,5 5,3 9,7 12,12 3,5 5,10 6,16 1,6 2,11 1,16l-64 0c0,4 0,7 1,11 1,3 3,6 5,9 2,3 5,5 8,6 3,2 8,2 12,2 6,0 11,-1 15,-4 4,-3 6,-7 8,-13l14 0c-2,10 -6,17 -13,22z"/>
  <path class="fil4" d="M5074 5954l0 18 0 0c3,-7 8,-12 13,-16 5,-3 11,-5 19,-5l0 15c-6,0 -11,1 -15,2 -4,2 -7,4 -10,7 -2,3 -4,7 -5,11 -1,4 -2,9 -2,15l0 38 -14 0 0 -86 13 0z"/>
  <path class="fil4" d="M4420 6167l0 -13 15 0 0 -13c0,-7 2,-12 6,-16 4,-4 10,-5 18,-5 1,0 3,0 5,0 2,0 3,1 5,1l0 12c-1,0 -3,-1 -4,-1 -1,0 -3,0 -4,0 -3,0 -6,1 -8,2 -2,1 -3,4 -3,8l0 12 17 0 0 13 -17 0 0 74 -14 0 0 -74 -15 0z"/>
  <path class="fil4" d="M4491 6211c1,4 3,7 6,10 2,3 5,5 9,6 3,1 7,2 10,2 4,0 7,-1 10,-2 3,-1 6,-4 9,-6 2,-3 4,-6 6,-10 1,-4 2,-9 2,-14 0,-5 -1,-10 -2,-14 -1,-4 -3,-7 -6,-10 -2,-3 -5,-5 -9,-6 -3,-1 -7,-2 -10,-2 -4,0 -7,1 -10,2 -3,1 -6,4 -9,6 -2,3 -4,6 -6,10 -1,4 -2,9 -2,14 0,5 1,10 2,14zm-14 -32c2,-6 4,-10 8,-14 4,-4 8,-7 13,-10 5,-2 11,-4 18,-4 7,0 13,1 18,4 5,2 10,6 13,10 4,4 6,9 8,14 2,5 3,11 3,18 0,6 -1,12 -3,18 -2,5 -4,10 -8,14 -4,4 -8,7 -13,9 -5,2 -11,3 -18,3 -7,0 -13,-1 -18,-3 -5,-2 -10,-5 -13,-9 -4,-4 -6,-9 -8,-14 -2,-5 -3,-11 -3,-18 0,-6 1,-12 3,-18z"/>
  <path class="fil4" d="M4587 6154l0 18 0 0c3,-7 8,-12 13,-16 5,-3 11,-5 19,-5l0 15c-6,0 -11,1 -15,2 -4,2 -7,4 -10,7 -2,3 -4,7 -5,11 -1,4 -2,9 -2,15l0 38 -14 0 0 -86 13 0z"/>
  <path class="fil4" d="M4710 6241l0 -85 -31 0 0 -11c4,0 8,0 12,-1 4,-1 7,-2 10,-3 3,-2 6,-4 8,-7 2,-3 4,-7 4,-11l11 0 0 118 -14 0z"/>
  <path class="fil4" d="M4767 6148c2,-5 4,-10 7,-13 3,-4 7,-7 12,-9 5,-2 10,-3 17,-3 5,0 10,1 14,2 5,2 8,4 12,7 3,3 6,6 8,11 2,4 3,9 3,15 0,5 -1,10 -2,14 -2,4 -4,8 -6,11 -3,3 -6,6 -9,9 -3,3 -7,5 -11,7 -4,2 -7,4 -11,7 -4,2 -7,4 -10,7 -3,2 -6,5 -8,8 -2,3 -4,6 -4,10l61 0 0 13 -77 0c1,-7 2,-13 4,-18 2,-5 4,-9 7,-13 3,-4 6,-7 10,-10 4,-3 8,-5 12,-8 5,-3 9,-6 13,-9 4,-3 7,-5 9,-8 2,-3 4,-6 6,-9 1,-3 2,-7 2,-11 0,-3 -1,-6 -2,-9 -1,-3 -3,-5 -5,-7 -2,-2 -4,-3 -7,-4 -3,-1 -6,-2 -9,-2 -4,0 -8,1 -11,3 -3,2 -5,4 -7,7 -2,3 -3,6 -4,9 -1,4 -1,7 -1,11l-14 0c0,-6 0,-12 2,-17z"/>
  <path class="fil4" d="M4873 6197c0,6 1,11 3,16 2,5 4,9 7,12 3,3 8,5 14,5 6,0 11,-2 14,-5 3,-3 6,-7 7,-12 2,-5 2,-10 3,-16 0,-5 0,-10 0,-15 0,-3 0,-6 0,-10 0,-3 0,-7 -1,-10 -1,-4 -1,-7 -2,-10 -1,-3 -2,-6 -4,-9 -2,-3 -4,-5 -7,-6 -3,-2 -6,-2 -10,-2 -4,0 -7,1 -10,2 -3,2 -5,4 -7,6 -2,3 -3,5 -4,9 -1,3 -2,7 -2,10 0,4 -1,7 -1,10 0,4 0,7 0,10 0,4 0,9 0,15zm-15 -28c0,-5 1,-9 2,-14 1,-4 2,-9 4,-13 2,-4 4,-7 7,-10 3,-3 7,-5 11,-7 4,-2 10,-3 16,-3 6,0 11,1 16,3 4,2 8,4 11,7 3,3 5,6 7,10 2,4 3,8 4,13 1,4 1,9 2,14 0,5 0,9 0,14 0,4 0,9 0,14 0,5 -1,9 -2,14 -1,4 -2,9 -4,13 -2,4 -4,7 -7,10 -3,3 -7,5 -11,7 -4,2 -10,3 -16,3 -6,0 -11,-1 -16,-3 -4,-2 -8,-4 -11,-7 -3,-3 -5,-6 -7,-10 -2,-4 -3,-8 -4,-13 -1,-4 -1,-9 -2,-14 0,-5 0,-9 0,-14 0,-4 0,-9 0,-14z"/>
  <path class="fil4" d="M5019 6185c-1,-4 -3,-7 -5,-10 -2,-3 -5,-5 -8,-7 -3,-2 -7,-3 -12,-3 -5,0 -9,1 -12,3 -3,2 -6,4 -8,7 -2,3 -4,7 -5,10 -1,4 -1,8 -1,12 0,4 1,8 1,12 1,4 3,7 5,10 2,3 5,5 8,7 3,2 8,3 12,3 5,0 9,-1 12,-3 3,-2 6,-4 8,-7 2,-3 3,-7 4,-11 1,-4 1,-8 1,-12 0,-4 -1,-8 -2,-12zm-51 -31l0 12 0 0c2,-5 6,-8 11,-10 5,-2 11,-3 17,-3 7,0 12,1 17,4 5,2 9,6 12,10 3,4 6,9 7,14 2,5 3,11 3,17 0,6 -1,12 -2,17 -2,5 -4,10 -7,14 -3,4 -7,7 -12,10 -5,2 -11,4 -17,4 -2,0 -4,0 -7,-1 -3,0 -5,-1 -8,-2 -3,-1 -5,-2 -7,-4 -2,-2 -4,-4 -6,-6l0 0 0 44 -14 0 0 -119 14 0z"/>
  <polygon class="fil4" points="5046,6154 5064,6154 5085,6185 5106,6154 5123,6154 5093,6194 5127,6241 5109,6241 5085,6205 5061,6241 5043,6241 5076,6195 "/>
  <polygon class="fil4" points="5267,6193 5267,6204 5230,6204 5230,6241 5219,6241 5219,6204 5183,6204 5183,6193 5219,6193 5219,6156 5230,6156 5230,6193 "/>
 </g>
</svg>
