<?xml version="1.0" encoding="utf-8"?>
<!-- Generator: Adobe Illustrator 21.1.0, SVG Export Plug-In . SVG Version: 6.00 Build 0)  -->
<svg version="1.1" id="Layer_1" xmlns="http://www.w3.org/2000/svg" xmlns:xlink="http://www.w3.org/1999/xlink" x="0px" y="0px"
	 viewBox="0 0 612 562" style="enable-background:new 0 0 612 562;" xml:space="preserve">
<style type="text/css">
	.st0{fill:#ED1C24;}
	.st1{fill-rule:evenodd;clip-rule:evenodd;fill:#FFFFFF;}
</style>
<g>
	<path class="st0" d="M306.6,12L306.6,12L306.6,12c73.9,0,140.8,30,189.2,78.4c48.4,48.4,78.4,115.3,78.4,189.2h0v0v0h0
		c0,73.9-30,140.8-78.4,189.2c-48.4,48.4-115.3,78.4-189.2,78.4v0h0h0v0c-73.9,0-140.8-30-189.2-78.4C69,420.4,39,353.5,39,279.6h0
		v0v0h0c0-73.9,30-140.8,78.4-189.2C165.8,42,232.7,12,306.6,12L306.6,12L306.6,12L306.6,12z M306.6,79.1L306.6,79.1L306.6,79.1
		c55.4,0,105.5,22.5,141.8,58.7c36.3,36.3,58.7,86.4,58.7,141.8h0v0v0h0c0,55.4-22.4,105.5-58.7,141.8
		c-36.3,36.3-86.4,58.7-141.8,58.7v0h0h0v0c-55.4,0-105.5-22.4-141.8-58.7c-36.3-36.3-58.7-86.4-58.7-141.8h0v0v0h0
		c0-55.4,22.4-105.5,58.7-141.8C201.1,101.6,251.2,79.2,306.6,79.1L306.6,79.1L306.6,79.1L306.6,79.1z M306.6,91.1L306.6,91.1
		L306.6,91.1L306.6,91.1L306.6,91.1c-52,0-99.2,21.1-133.3,55.2c-34.1,34.1-55.2,81.2-55.2,133.3h0v0v0h0c0,52,21.1,99.1,55.2,133.3
		c34.1,34.1,81.2,55.2,133.3,55.2v0h0h0v0c52,0,99.1-21.1,133.3-55.2s55.2-81.2,55.2-133.3h0v0v0h0c0-52-21.1-99.1-55.2-133.3
		C405.8,112.2,358.6,91.1,306.6,91.1L306.6,91.1z M306.6,24L306.6,24L306.6,24L306.6,24L306.6,24c-70.6,0-134.5,28.6-180.7,74.9
		C79.6,145.1,51,209.1,51,279.6h0v0v0h0c0,70.6,28.6,134.5,74.9,180.7c46.3,46.3,110.2,74.9,180.7,74.9v0h0h0v0
		c70.6,0,134.5-28.6,180.7-74.9c46.3-46.3,74.9-110.2,74.9-180.7h0v0v0h0c0-70.6-28.6-134.5-74.9-180.7
		C441.1,52.6,377.2,24,306.6,24L306.6,24z"/>
	<path class="st1" d="M306.6,459.3L306.6,459.3L306.6,459.3c-23.5-9.2-40.7-21.8-68.9-44c-28.2-22.2-52.7-60.2-52.7-98V150.4
		l121.6-0.2h0.1l121.6,0.2v166.8c0,37.8-24.5,75.8-52.7,98C347.3,437.4,330.1,450,306.6,459.3L306.6,459.3z"/>
	<path class="st0" d="M270.7,447.1c-11.1-7.3-22.5-16-36.6-27.1l0,0l0,0c-4.1-3.2-8.1-6.8-12.1-10.7c-3.9-3.8-7.6-7.9-11.2-12.3
		C192.3,374.6,179,346,179,317.3V150.4v-6l6,0l121.6-0.2v0h0.1v0l121.6,0.2l6,0v6v166.8v0h0c0,20-6.4,39.9-16.6,57.8
		c-1.6,2.8-3.3,5.6-5.2,8.5c-9.4,14.2-21,26.8-33.3,36.4c-14.1,11.1-25.5,19.9-36.6,27.1c-11.3,7.4-23.2,13.8-35.9,18.5
		C293.9,461,282,454.5,270.7,447.1L270.7,447.1z M191,250.4h231.2v-94l-115.6-0.2v0h-0.1v0L191,156.4V250.4L191,250.4z M422.2,260.7
		h-111v190.1c8.6-3.8,16.5-8.3,24.7-13.7c10.4-6.9,21.7-15.5,35.8-26.6c11.4-8.9,22.1-20.5,30.7-33.6c1.6-2.5,3.2-5.1,4.8-7.8
		c9.2-16.2,15-34.1,15-51.9h0v0V260.7L422.2,260.7z M300.9,450.4l0-189.6H191v56.6c0,25.7,12.1,51.7,29,72.2
		c3.3,4,6.8,7.8,10.4,11.3c3.6,3.5,7.3,6.8,11.1,9.8l0,0l0,0c14.1,11.1,25.4,19.7,35.8,26.6C285.1,442.3,292.7,446.6,300.9,450.4
		L300.9,450.4z"/>
	<path class="st0" d="M247,291.3v93.8c8.4,0.4,18.1-0.8,26.6-1.7c2.7-0.3,5.3-0.6,8.4-0.9c6.3-0.6,11.6-0.6,15.9,0.1
		c3.4,0.6,6.3,1.6,8.7,3.2c2.5-1.6,5.3-2.6,8.7-3.2c4.3-0.7,9.6-0.7,15.9-0.1c3.2,0.3,5.7,0.6,8.4,0.9c8.5,1,18.2,2.1,26.6,1.7
		v-93.8c-9.3,0.4-19.6-0.8-28.5-1.8c-3.2-0.4-6.3-0.7-8.2-0.9c-5.3-0.5-9.6-0.6-12.9,0c-2.6,0.4-4.4,1.3-5.7,2.6l-4.3-4.3l-4.3,4.3
		c-1.3-1.3-3.1-2.1-5.7-2.6c-3.3-0.6-7.6-0.5-12.9,0c-2,0.2-5,0.5-8.2,0.9C266.6,290.6,256.3,291.8,247,291.3L247,291.3z
		 M290.5,309.1c-2.8,0-5.4,0.1-8,0.3c-2.6,0.2-5.3,0.5-8.3,1l-0.1,0c-0.6,0.1-1.5,0.2-2.7,0.4c-1.1,0.2-2,0.3-2.7,0.3
		c-4.3,0.5-8.8,0.7-13.1,0.7v-8c4.2,0,8.4-0.2,12.6-0.7c1-0.1,1.9-0.2,2.5-0.3c0.5-0.1,1.3-0.2,2.4-0.4l0.1,0c3.1-0.5,6-0.8,9.1-1.1
		c2.7-0.2,5.4-0.3,8.2-0.3V309.1L290.5,309.1z M290.5,321.7v8c-2.8,0-5.4,0.1-8,0.3c-2.6,0.2-5.3,0.5-8.3,1l-0.1,0
		c-0.6,0.1-1.5,0.2-2.7,0.4c-1.1,0.2-2,0.3-2.7,0.3c-4.3,0.5-8.8,0.7-13.1,0.7v-8c4.2,0,8.4-0.2,12.6-0.7c1-0.1,1.9-0.2,2.5-0.3
		c0.5-0.1,1.3-0.2,2.4-0.4l0.1,0c3.1-0.5,6-0.8,9.1-1.1C285,321.8,287.7,321.7,290.5,321.7L290.5,321.7z M290.5,342.3v8
		c-2.8,0-5.4,0.1-8,0.3c-2.6,0.2-5.3,0.5-8.3,1l-0.1,0c-0.6,0.1-1.5,0.2-2.7,0.4c-1.1,0.2-2,0.3-2.7,0.3c-4.3,0.5-8.8,0.7-13.1,0.7
		v-8c4.2,0,8.4-0.2,12.6-0.7c1-0.1,1.9-0.2,2.5-0.3c0.5-0.1,1.3-0.2,2.4-0.4l0.1,0c3.1-0.5,6-0.8,9.1-1.1
		C285,342.4,287.7,342.3,290.5,342.3L290.5,342.3z M290.5,362.9v8c-2.8,0-5.4,0.1-8,0.3c-2.6,0.2-5.3,0.5-8.3,1l-0.1,0
		c-0.6,0.1-1.5,0.2-2.7,0.4c-1.1,0.2-2,0.3-2.7,0.3c-4.3,0.5-8.8,0.7-13.1,0.7v-8c4.2,0,8.4-0.2,12.6-0.7c1-0.1,1.9-0.2,2.5-0.3
		c0.5-0.1,1.3-0.2,2.4-0.4l0.1,0c3.1-0.5,6-0.8,9.1-1.1C285,363,287.7,362.9,290.5,362.9L290.5,362.9z M322.7,309.1
		c2.8,0,5.4,0.1,8,0.3c2.6,0.2,5.3,0.5,8.3,1l0.1,0c0.6,0.1,1.5,0.2,2.7,0.4c1.1,0.2,2,0.3,2.7,0.3c4.3,0.5,8.8,0.7,13.1,0.7v-8
		c-4.2,0-8.4-0.2-12.6-0.7c-1-0.1-1.9-0.2-2.5-0.3c-0.5-0.1-1.3-0.2-2.4-0.4l-0.1,0c-3.1-0.5-6-0.8-9.1-1.1
		c-2.7-0.2-5.4-0.3-8.2-0.3V309.1L322.7,309.1z M322.7,321.7v8c2.8,0,5.4,0.1,8,0.3c2.6,0.2,5.3,0.5,8.3,1l0.1,0
		c0.6,0.1,1.5,0.2,2.7,0.4c1.1,0.2,2,0.3,2.7,0.3c4.3,0.5,8.8,0.7,13.1,0.7v-8c-4.2,0-8.4-0.2-12.6-0.7c-1-0.1-1.9-0.2-2.5-0.3
		c-0.5-0.1-1.3-0.2-2.4-0.4l-0.1,0c-3.1-0.5-6-0.8-9.1-1.1C328.2,321.8,325.5,321.7,322.7,321.7L322.7,321.7z M322.7,342.3v8
		c2.8,0,5.4,0.1,8,0.3c2.6,0.2,5.3,0.5,8.3,1l0.1,0c0.6,0.1,1.5,0.2,2.7,0.4c1.1,0.2,2,0.3,2.7,0.3c4.3,0.5,8.8,0.7,13.1,0.7v-8
		c-4.2,0-8.4-0.2-12.6-0.7c-1-0.1-1.9-0.2-2.5-0.3c-0.5-0.1-1.3-0.2-2.4-0.4l-0.1,0c-3.1-0.5-6-0.8-9.1-1.1
		C328.2,342.4,325.5,342.3,322.7,342.3L322.7,342.3z M322.7,362.9v8c2.8,0,5.4,0.1,8,0.3c2.6,0.2,5.3,0.5,8.3,1l0.1,0
		c0.6,0.1,1.5,0.2,2.7,0.4c1.1,0.2,2,0.3,2.7,0.3c4.3,0.5,8.8,0.7,13.1,0.7v-8c-4.2,0-8.4-0.2-12.6-0.7c-1-0.1-1.9-0.2-2.5-0.3
		c-0.5-0.1-1.3-0.2-2.4-0.4l-0.1,0c-3.1-0.5-6-0.8-9.1-1.1C328.2,363,325.5,362.9,322.7,362.9L322.7,362.9z M301.7,397
		c-1.3-1.3-3.1-2.1-5.7-2.6c-3.3-0.6-7.6-0.5-12.9,0c-2,0.2-5,0.5-8.2,0.9c-10.8,1.2-23.7,2.7-34.5,1.3h0l0,0l-5.1-0.7v-5.2v-14.4
		h-12.3v-14.3h12.3v-15.9h-12.3v-14.3h12.3v-20.2h-12.3v-14.3h12.3v-17.8c12.8,0,26.2-0.3,38.9-1.7c2.7-0.3,5.3-0.6,8.4-0.9
		c6.3-0.6,11.6-0.6,15.9,0.1c3.1,0.5,5.8,1.4,8.1,2.8c2.3-1.4,5-2.3,8.1-2.8c4.3-0.7,9.6-0.7,15.9-0.1c3.2,0.3,5.7,0.6,8.4,0.9
		c12.7,1.5,26.1,1.7,38.9,1.7v17.8h12.3v14.3H378v20.2h12.3v14.3H378v15.9h12.3v14.3H378v14.4v5.2l-5.1,0.7l0,0h0
		c-10.8,1.5-23.6,0-34.5-1.3c-3.2-0.4-6.3-0.7-8.2-0.9c-5.3-0.5-9.6-0.6-12.9,0c-2.6,0.4-4.9,1.3-6.2,2.6H301.7L301.7,397z"/>
	<path class="st1" d="M247.2,169.9L247.2,169.9l30.7,0c0,12.9,0,28.1,0,41.6c0,10-21,21.3-30.7,27c-9.7-5.8-30.7-17.3-30.7-27
		c0-13.5,0-28.6,0-41.6L247.2,169.9L247.2,169.9z"/>
	<path class="st0" d="M247.2,163.9L247.2,163.9L247.2,163.9l30.7,0l6,0v6v41.6v0h0c0,11.9-17.6,22.8-29.2,29.6
		c-3,1.8,3.6-2.2-4.4,2.5l-3.1,1.8l-3-1.8c-1.3-0.8-2.1-1.2-2.9-1.7c-11.6-6.8-30.7-18.2-30.7-30.4v-41.6v-6l6,0L247.2,163.9
		L247.2,163.9L247.2,163.9z M222.5,187.1h49.3v-11.2l-24.6,0v0h-0.1v0l-24.6,0V187.1L222.5,187.1z M271.9,198.5h-49.3v13
		c0,5.4,15.4,14.5,24.7,20l1.3-0.8l0,0c9.3-5.4,23.3-13.9,23.3-19.3h0v0V198.5L271.9,198.5z"/>
	<path class="st1" d="M366,169.9L366,169.9l30.7,0c0,12.9,0,28.1,0,41.6c0,10-21,21.3-30.7,27c-9.7-5.8-30.7-17.3-30.7-27
		c0-13.5,0-28.6,0-41.6L366,169.9L366,169.9z"/>
	<path class="st0" d="M366,163.9L366,163.9L366,163.9l30.7,0l6,0v6v41.6v0h0c0,11.9-17.6,22.8-29.2,29.6c-3,1.8,3.6-2.2-4.4,2.5
		l-3.1,1.8l-3-1.8c-1.3-0.8-2.1-1.2-2.9-1.7c-11.6-6.8-30.7-18.2-30.7-30.4v-41.6v-6l6,0L366,163.9L366,163.9L366,163.9z
		 M341.3,196.4l24.7-17l24.7,17v-20.5l-24.6,0v0H366v0l-24.6,0V196.4L341.3,196.4z M390.7,210.2l-24.7-17l-24.7,17v1.3
		c0,5.4,15.4,14.5,24.7,20l1.3-0.8l0,0c9.3-5.4,23.3-13.9,23.3-19.3h0v0V210.2L390.7,210.2z"/>
	<path class="st0" d="M91.6,253.3c0.7,1.8,1.1,5.3,0.8,8.2c-0.7,7.9-6.7,12-14.2,11.4c-7.6-0.7-12.9-5.9-12.3-13.5
		c0.2-2.6,0.8-5.1,2.7-7.8l-6.2-1.1c-1.3,2.6-2,5.8-2.3,8.2c-1.1,12.5,5.3,20.8,17.9,21.9c12.5,1.1,19.2-6.7,20.2-18.6
		c0.2-2.8,0-5.7-0.4-8.5L91.6,253.3L91.6,253.3z M81.2,236.9c10.9,3.1,20.2-0.7,23.5-12.1c3.2-11.3-2.8-19.6-13.5-22.7
		c-10.7-3.1-20.1,1-23.3,12.2C64.7,225.6,70.3,233.8,81.2,236.9L81.2,236.9z M83.3,229.5c-6.3-1.8-11.9-6.5-9.8-13.6
		c2-7.1,9.3-8.1,15.5-6.3c6.4,1.8,12.1,6.4,10,13.7C97,230.5,89.8,231.3,83.3,229.5L83.3,229.5z M90.9,172.9l1.1-2.2
		c1.7-3.3,4-6.8,7.9-4.7c4.1,2.2,2.6,6.1,0.9,9.3l-1.1,2.2L90.9,172.9L90.9,172.9z M115,194l3.5-6.6l-13.6-7.2l1.1-2.1
		c1.5-2.8,2.9-3.1,5.8-2.7l12.3,1.5l3.9-7.3l-15.6-1.6c-1.8-0.1-4.1,0-5.2,1.7l-0.1,0c1.7-4.5-0.2-8.7-4-10.8
		c-9.1-4.8-13.3,3.7-17,10.7l-3.8,7.1L115,194L115,194z M134.9,158.7l4.5-5.5l-21.5-17.4l0.1-0.1l30.4,6.4l5.7-7l-28.8-23.3
		l-4.5,5.5l21.5,17.4l-0.1,0.1l-30.4-6.5l-5.7,7.1L134.9,158.7L134.9,158.7z M165.7,123.6l17.3-13.5l-3.6-4.6l-11.4,8.9l-6.4-8.2
		l10.4-8.1l-3.6-4.6l-10.4,8.1l-5.6-7.2l11.4-8.9l-3.6-4.6L143,94.4L165.7,123.6L165.7,123.6z M196.2,101.4l19.1-10.6l-2.8-5.1
		l-12.6,7l-15.1-27.3l-6.5,3.6L196.2,101.4L196.2,101.4z M226.9,85.7l20.7-6.7l-1.8-5.5l-13.7,4.4l-9.6-29.6l-7.1,2.3L226.9,85.7
		L226.9,85.7z M273,59.1c0.7,9.9,6.6,13.6,16,12.9c9.5-0.7,14.8-5.1,14.1-15l-1.6-23.6l-7.4,0.5l1.5,21.3c0.4,6.3-1.3,10.6-6.9,11
		c-5.7,0.4-8-3.6-8.4-9.9L278.8,35l-7.4,0.5L273,59.1L273,59.1z M320.1,70.5l7,0.9l3.4-27.5l0.1,0l10.7,29.2l9,1.1l4.5-36.7l-7-0.9
		l-3.4,27.5l-0.1,0l-10.6-29.2l-9-1.1L320.1,70.5L320.1,70.5z M365.5,79.1l7.1,2.3L384,46.2l-7.1-2.3L365.5,79.1L365.5,79.1z
		 M395.6,90.4l8.1,4.1l27.9-27.3l-6.6-3.3l-21.5,21.6l-0.1,0l4.7-30.2l-7.1-3.6L395.6,90.4L395.6,90.4z M425.8,107.7l17.3,13.5
		l3.6-4.6l-11.4-8.9l6.4-8.2l10.4,8.1l3.6-4.6l-10.4-8.1l5.6-7.2l11.4,8.9l3.6-4.6l-17.2-13.4L425.8,107.7L425.8,107.7z
		 M482.2,116.3l1.6,1.8c2.4,2.8,4.9,6.2,1.5,9.1c-3.5,3-6.6,0.2-9-2.5l-1.6-1.8L482.2,116.3L482.2,116.3z M453.8,131.1l4.9,5.6
		l11.6-10.1l1.6,1.8c2.1,2.4,1.9,3.8,0.5,6.4l-5.8,10.9l5.4,6.2l7-14c0.8-1.6,1.5-3.8,0.3-5.5l0.1-0.1c3.6,3.1,8.2,3,11.5,0.1
		c7.8-6.7,1.3-13.7-3.9-19.7l-5.2-6L453.8,131.1L453.8,131.1z M521.9,162.5c-0.6-2.8-1.7-5.6-3.3-8.3c-3.3-5.6-9.1-9.7-16.2-5.6
		c-10.6,6.1,0,18.7-6.1,22.2c-2.9,1.7-6-0.9-7.4-3.3c-1.5-2.5-2.1-5.5-2.2-8.4l-6.1,2.7c1,3.6,1.5,5.4,3.5,8.9
		c3.7,6.5,9.6,10.5,16.6,6.4c10.7-6.2,0.3-18.9,5.8-22.1c3.5-2,6.1,0.3,7.4,2.5c1.3,2.2,2.1,4.8,2.4,7.3L521.9,162.5L521.9,162.5z
		 M497.9,195.4l2.8,6.9l34.3-13.9l-2.8-6.9L497.9,195.4L497.9,195.4z M507.5,223.8l2,7.1l30-8.6l2.9,10.2l5.6-1.6l-7.9-27.5
		l-5.6,1.6l2.9,10.2L507.5,223.8L507.5,223.8z M514.6,263.8l0.6,7.4l14.6-1.3l23.4,11.3l-0.7-7.8l-16.2-7.5l14.7-10.1l-0.8-8.7
		l-21.1,15.4L514.6,263.8L514.6,263.8z"/>
	<path class="st0" d="M65.9,337.1l1.9,7.2l15.7-4.2l3.2,12.1l5.6-1.5l-3.2-12.1l8.8-2.4l3.4,12.7l5.6-1.5l-5.3-19.9L65.9,337.1
		L65.9,337.1z M93.3,363.6c-10.2,5-14.6,14.1-9.4,24.7c5.1,10.5,15.2,12.8,25.2,7.9c10.1-4.9,14.2-14.2,9.2-24.6
		C113.2,361,103.5,358.7,93.3,363.6L93.3,363.6z M96.7,370.6c5.9-2.9,13.2-3.1,16.4,3.6c3.2,6.6-1.4,12.3-7.3,15.1
		c-6,2.9-13.3,3.4-16.6-3.5C85.9,379,90.7,373.5,96.7,370.6L96.7,370.6z M115,414.3c-7.8,6.1-7.6,13-1.7,20.5
		c5.8,7.5,12.5,9.4,20.3,3.3l18.6-14.6l-4.6-5.8l-16.8,13.2c-5,3.9-9.5,4.8-13,0.4c-3.5-4.5-1.5-8.6,3.5-12.5l16.8-13.1l-4.6-5.8
		L115,414.3L115,414.3z M138.6,462.1l5.6,4.4l17-21.8l0.1,0.1l-5.9,30.5l7.1,5.6l22.8-29.2l-5.6-4.4l-17,21.8l-0.1-0.1l5.9-30.5
		l-7.2-5.6L138.6,462.1L138.6,462.1z M184.1,494.4l9,4.6c10.1,5.1,20.8,6.3,27.4-6.8c6.7-13.1-0.5-21-10.6-26.2l-9-4.6L184.1,494.4
		L184.1,494.4z M204.8,470l3.7,1.9c5.5,2.8,8.8,9.6,5.1,16.8c-3.7,7.2-11.1,8.6-16.6,5.8l-3.7-1.9L204.8,470L204.8,470z
		 M231.2,514.9l21.1,6l1.6-5.6l-14-4l2.9-10l12.7,3.6l1.6-5.6l-12.7-3.6l2.5-8.8l13.9,4l1.6-5.6l-21-6L231.2,514.9L231.2,514.9z
		 M276.3,524.7l10.1,0.9c11.3,1,21.6-1.9,22.9-16.6c1.3-14.6-8.4-19.3-19.7-20.3l-10.1-0.9L276.3,524.7L276.3,524.7z M286.4,494.3
		l4.1,0.4c6.2,0.5,11.7,5.7,11,13.7c-0.7,8-7.1,12.1-13.2,11.6l-4.1-0.4L286.4,494.3L286.4,494.3z M357.4,506.1l-10.5,2.6l1.5-16.1
		l0.1,0L357.4,506.1L357.4,506.1z M337.7,525.8l7.5-1.9l1.1-9l14.6-3.6l5.1,7.5l8-2l-23-32.4l-8.1,2L337.7,525.8L337.7,525.8z
		 M383.8,514l7-2.5l-2.5-7l-7,2.5L383.8,514L383.8,514z M409.1,504.3l9-4.6c10.1-5.1,17.3-13.1,10.6-26.2
		c-6.7-13.1-17.3-11.9-27.4-6.8l-9,4.6L409.1,504.3L409.1,504.3z M401.6,473.2l3.7-1.9c5.5-2.8,13-1.4,16.6,5.8
		c3.7,7.2,0.4,14-5.1,16.8l-3.7,1.9L401.6,473.2L401.6,473.2z M443.9,484.5l6-4.4l-4.4-6l-6,4.4L443.9,484.5L443.9,484.5z
		 M453.8,441.5l6.1,0.6l0.5-8l20.9,19.5l5.1-5.4l-27.1-25.2l-4.5,4.8L453.8,441.5L453.8,441.5z M488.8,415.6
		c-0.8,4.9,0.2,8.4,3.6,10.8c6.2,4.3,12.1,1.3,16.2-4.6c4.2-6,4.6-12.3-1.5-16.6c-3.5-2.4-7.4-2.4-12,0.3l0,0c1-4.3-1-8.2-3.7-10.1
		c-5.1-3.6-10.7-0.3-14.4,5.1c-3.9,5.5-4.2,11.4,1.2,15.2C481.3,417.9,485.2,417.6,488.8,415.6L488.8,415.6L488.8,415.6z
		 M482.4,409.9c-2.4-1.7-2.1-4.8-0.5-7c1.6-2.3,4.2-2.6,6.4-1.1c1.9,1.3,2.6,4.3,2,6.5C488.1,409.9,485,411.8,482.4,409.9
		L482.4,409.9z M496.6,420.3c-2.6-1.8-2.8-4.5-2.3-7.4c2.6-1.9,5.8-3.5,8.8-1.4c2.5,1.8,2.7,4.7,1,7.2
		C502.4,421.1,499.1,422,496.6,420.3L496.6,420.3z M499.9,361.8c-1.9,2-3.3,4.1-4.4,6.6c-4.9,10.9,3.9,18.4,13,22.5
		c7.9,3.5,16.7,4.9,20.9-4.5c3.4-7.7,0.2-13.4-7.2-16.6c-6.2-2.8-11.9-1.1-14.7,5.3c-1.3,2.9-1.1,5.4,0.5,8l-0.1,0.1
		c-5-2.4-9.5-6.8-6.9-12.7c1-2.3,2.4-3.9,4-5.3L499.9,361.8L499.9,361.8z M511.9,378.8c1.4-3.2,5.1-3.2,8.4-1.8c3,1.3,5.5,4,4.1,7.1
		c-1.5,3.3-4.9,3.4-8.1,2C512.9,384.7,510.4,382.1,511.9,378.8L511.9,378.8z M510.6,326.9l-5.5,20.5l19.1,5.5
		c-0.1-2.3,0.2-4.5,0.7-6.7c1.1-4.1,3.8-7.8,8.4-6.5c4.6,1.2,5.3,5.6,4.3,9.3c-0.8,3.1-2.6,5.3-3.8,6.8l6.4,1.9
		c1.2-2.2,2.5-5.3,3.3-8.1c2.5-9.2-1.7-15.4-8.4-17.2c-9.3-2.5-13.4,3.4-14.7,8.4c-0.4,1.4-0.5,2.5-0.5,3.4l-7.6-2.2l3.7-13.8
		L510.6,326.9L510.6,326.9z"/>
</g>
</svg>
